<?xml version="1.0" encoding="UTF-8"?><svg id="a" xmlns="http://www.w3.org/2000/svg" viewBox="0 0 1024 846.65"><defs><style>.b{fill:#fff;}</style></defs><path class="b" d="M0,657.45C0,503.44,0,349.44,0,195.43c.24-.43,.65-.83,.7-1.28,2.96-24.85,25.91-50.07,60.09-48.75,6.92,.27,13.86,.04,21.21,.04,0-8.57-.17-17.05,.04-25.52,.32-12.63,4.74-23.78,13.25-33.12,14.95-16.41,33.72-19.39,54.45-15.02,3.96,.84,7.9,1.76,11.89,2.65,.48-4.55,.75-8.54,1.35-12.48,6.27-41.17,41.35-73.86,89.86-57.78,17.68,5.86,35.26,12.04,52.81,18.29,18.33,6.53,36.93,12.46,54.75,20.2,31.86,13.84,52.41,37.69,56.69,72.87,2.3,18.94,2.1,38.2,2.69,57.32,.12,3.8,1.19,5.87,4.43,7.86,31.25,19.16,62.14,38.85,90.98,61.59,.74,.58,1.63,.97,2.47,1.46,1-.75,1.81-1.33,2.59-1.95,49.41-38.96,103.1-70.92,159.92-97.72,66.88-31.55,136.12-56.41,208.29-72.82,20.4-4.64,38.44,4.3,47.61,23.07,4.33,8.86,6.02,18.28,5.97,28.08-.04,7.77,0,15.54,0,23.07,9.53,0,18.37-.38,27.16,.08,19.61,1.02,35.35,9.65,45.58,26.43,4.3,7.06,6.22,15.57,9.22,23.42v465.02c-.3,.75-.75,1.48-.87,2.26-2.8,17.65-11.08,31.49-27.27,40.1-1.4,.74-2.53,3.35-2.56,5.1-.2,15.33-.07,30.66-.14,45.99-.02,3.99-.11,8.02-.65,11.96-3.69,26.51-26.23,50.32-58.92,50.11-108.14-.7-216.29-.25-324.43-.34-4.1,0-7.08,.91-9.98,4.09-4.48,4.89-9.47,9.4-14.66,13.54-11.28,9.01-23.95,13.76-38.75,13.36-19.65-.53-39.33,.26-58.98-.34-6.96-.22-14.16-2.05-20.69-4.6-11.54-4.49-20.5-12.95-28.77-21.93-2.73-2.96-5.4-4.14-9.43-4.13-104.65,.11-209.29,.1-313.94,.05-4.15,0-8.38-.06-12.43-.85-30.06-5.9-50.38-30.74-50.4-61.34,0-15.15,0-30.29,0-45.26C26.24,698.8,7.09,684.18,0,657.45Zm542.8,87.82c1.11-.39,1.45-.43,1.69-.6,4.75-3.37,9.45-6.83,14.24-10.14,100.78-69.7,211.57-116.44,330.72-143.88,4.2-.97,7.34-3.03,8.51-6.79,1.55-5,2.97-10.3,2.98-15.48,.16-149.81,.14-299.63,.14-449.44,0-1.47-.13-2.94-.21-4.83-1.96,.38-3.58,.65-5.17,1.01-49.24,11.34-97.05,27.13-143.79,46.23-73.59,30.06-142.77,67.79-204.82,117.93-3.18,2.57-4.4,5.09-4.39,9.16,.11,150.32,.09,300.63,.09,450.95,0,1.81,0,3.61,0,5.89ZM419.9,230.28c0,1.88,0,3.83,0,5.78,0,79.32,0,158.64,0,237.96,0,10.98-4.45,18.27-13.01,21.45-8.57,3.18-16.84,.43-23.82-7.88-21.64-25.77-43.29-51.54-64.94-77.3-3.09-3.68-6.23-7.31-9.39-11.02-22.68,12.38-45.03,24.59-67.37,36.78-18.55,10.12-36.48-.35-36.48-21.31,0-91.82,0-183.64,.03-275.45,0-3.12,.16-5.62-3.9-6.73-21.02-5.71-41.96-11.71-62.94-17.57-1.48-.41-3.08-.43-5.04-.68,0,1.98,0,3.29,0,4.6,.01,94.82,.02,189.64,.03,284.45,0,55.16-.01,110.32,.01,165.47,0,10.93,6.96,19.19,17.43,21.93,28.31,7.42,56.87,14.08,84.76,22.87,94.11,29.67,182.44,71.32,262.54,129.52,1.1,.8,2.36,1.39,4.04,2.38v-34.31c0-140.98,0-281.95,.01-422.93,0-3.01,.07-5.51-3.2-7.58-26.16-16.55-52.16-33.35-78.77-50.44ZM202.66,64.5c2.03,0,4-.07,5.98,.01,17.92,.71,30.09,9.92,34.21,27.3,2.01,8.5,2.86,17.46,2.88,26.21,.2,87.15,.12,174.31,.12,261.46,0,1.92,0,3.83,0,6.51,2.41-1.16,4.03-1.88,5.6-2.71,16.45-8.76,32.85-17.62,49.35-26.3,11.6-6.1,21.5-4,29.74,6,14.41,17.48,28.83,34.96,43.26,52.43,1.42,1.72,2.9,3.39,5.15,6.01,0-2.81,0-4.26,0-5.72,0-87.65,.02-175.31-.04-262.96,0-7.82-.43-15.65-.95-23.46-1.63-24.11-12.77-41.87-35.7-50.78-20.15-7.82-40.6-14.87-60.98-22.09-14.89-5.28-29.7-10.9-44.87-15.24-16.31-4.67-31.32,6.07-33.74,23.32Zm739.38,125.04v7.05c0,86,0,171.99,0,257.99,0,38.67,0,77.33,0,116,0,13.3-3.28,25.72-10.12,37.12-9.55,15.91-24,23.6-41.99,27.49-50.53,10.93-99.3,27.68-147.05,47.4-10.06,4.15-19.98,8.65-29.96,12.99,.9,.68,1.54,.64,2.16,.52,31.38-5.95,62.66-12.55,94.17-17.72,52.68-8.64,105.82-12.7,159.19-13.66,10.18-.18,14.57-4.55,14.57-14.73,.02-148.5,.02-296.99,0-445.49,0-8.34-5.31-14.47-13.61-14.86-8.94-.42-17.91-.09-27.37-.09ZM321.03,696.25l.15-.41c-1.01-.53-1.99-1.12-3.03-1.59-58.18-26.06-118.15-47.02-180.68-59.57-32.51-6.53-55.97-36.88-55.79-68.25,.7-123.15,.29-246.31,.29-369.47v-6.64c-4.69-.28-8.84-.63-12.98-.75-15.9-.44-17.86,1.49-17.86,17.37,0,146.66,0,293.31,0,439.97,0,1.33-.03,2.67,.01,4,.3,8.8,4.98,13.4,13.66,13.8,24.96,1.16,49.94,1.98,74.86,3.74,46.05,3.25,91.71,9.71,137.03,18.52,14.82,2.88,29.56,6.17,44.34,9.27Zm91.47,78.55l.23-1.25c-102.77-40.86-210.01-59.31-320.63-63.88,0,14.22,0,27.85,0,41.47,0,14.29,9.32,23.66,23.56,23.66,97.3,0,194.6,0,291.9,0,1.65,0,3.3,0,4.94,0Zm529.55-65.85c-109.6,6.25-215.46,27.09-317.84,65.1,1.24,.64,2.39,.74,3.54,.74,18.15,0,36.31,0,54.46,0,83.94,0,167.88,0,251.82,0,7.29,0,8.71-1.46,8.54-8.78-.12-5.16-.47-10.32-.49-15.47-.07-13.48-.02-26.95-.02-41.59Z"/></svg>